<?xml version="1.0" encoding="utf-8"?>
<!-- Generator: Adobe Illustrator 21.0.0, SVG Export Plug-In . SVG Version: 6.00 Build 0)  -->
<svg version="1.1" id="图层_1" xmlns="http://www.w3.org/2000/svg" xmlns:xlink="http://www.w3.org/1999/xlink" x="0px" y="0px"
	 viewBox="0 0 1024 1024" style="enable-background:new 0 0 1024 1024;" xml:space="preserve">
<style type="text/css">
	.st0{fill:#EC5353;}
	.st1{fill:#FFFFFF;}
	.st2{fill:#616B77;}
</style>
<path d="M256,511.5c0-1.503,0.03-3.001,0.055-4.5H256V511.5z"/>
<g>
	<g>
		<polyline class="st2" points="600.244,600.404 578.325,622.293 787.122,831.743 828.882,873.634 850.8,851.744 872.718,829.854 
			894.636,807.965 852.877,766.075 644.08,556.624 622.162,578.514 		"/>
	</g>
	<path class="st2" d="M457.627,412.93l21.178-21.203l-28.206-28.239l27.782,27.815l-32.65-32.688
		c-27.003-27.034-16.971-81.065,11.64-109.711c68.977-69.058,98.711-65.97,98.711-65.97l0,0
		c-32.818-32.857-78.761-55.139-129.221-55.139c-49.37,0-95.841,18.843-131.244,53.113c-0.699,0.676-1.396,1.353-2.088,2.04
		c0.089-0.09,0.175-0.182,0.265-0.271L162.264,314.36l-32.818,32.857l32.818,32.857l65.636,65.713l32.818,32.857l30.795-30.831
		l2.023-2.025l51.923-51.984l2.022-2.024l22.58,22.607l36.905,36.949l6.151,6.158l11.691-11.705 M328.406,212.71l0.028,0.028"/>
	<path class="st2" d="M897.276,278.03c-0.543-13.567-2.907-26.523-6.537-38.937c-1.022,1.287-1.777,2.785-2.931,3.989
		l-53.257,59.307c-27.122,30.207-73.057,32.175-102.499,4.39c-29.441-27.785-31.323-74.827-4.201-105.034l53.214-59.305
		c2.795-3.095,5.909-5.716,9.07-8.25c-16.787-5.454-34.626-8.244-53.223-7.447c-85.059,3.643-151.178,77.268-147.69,164.479
		c0.838,20.956,5.635,40.782,13.607,58.768L359.735,600.84c-23.819-13.42-51.408-20.553-80.553-19.304
		c-85.059,3.643-151.176,77.313-147.691,164.435c0.543,13.567,2.907,26.523,6.537,38.937c1.022-1.287,1.777-2.785,2.931-3.989
		l53.257-59.307c27.122-30.208,73.057-32.175,102.499-4.39c29.441,27.785,31.323,74.827,4.202,105.034l-53.214,59.305
		c-2.795,3.095-5.91,5.716-9.07,8.25c16.787,5.454,34.626,8.244,53.223,7.447c85.059-3.643,151.178-77.268,147.689-164.479
		c-0.801-20.019-5.215-39.008-12.556-56.347l244.261-252.052c23.309,12.629,50.09,19.296,78.337,18.086
		C834.644,438.822,900.761,365.152,897.276,278.03z"/>
</g>
</svg>
