<?xml version="1.0" encoding="utf-8"?>
<!-- Generator: Adobe Illustrator 21.0.0, SVG Export Plug-In . SVG Version: 6.00 Build 0)  -->
<svg version="1.1" id="图层_1" xmlns="http://www.w3.org/2000/svg" xmlns:xlink="http://www.w3.org/1999/xlink" x="0px" y="0px"
	 viewBox="0 0 1024 1024" style="enable-background:new 0 0 1024 1024;" xml:space="preserve">
<style type="text/css">
	.st0{fill:#EC5353;}
	.st1{fill:#FFFFFF;}
	.st2{fill:#616B77;}
</style>
<g>
	<g>
		<polyline class="st1" points="598.817,600.404 576.898,622.293 785.695,831.743 827.454,873.634 849.373,851.744 871.291,829.854 
			893.209,807.965 851.45,766.075 642.653,556.624 620.735,578.514 		"/>
	</g>
	<path class="st1" d="M456.2,412.93l21.178-21.203l-28.206-28.239l27.782,27.815l-32.65-32.688
		c-27.003-27.034-16.972-81.065,11.64-109.711c68.977-69.058,98.711-65.97,98.711-65.97l0,0
		c-32.818-32.857-78.761-55.139-129.221-55.139c-49.37,0-95.841,18.843-131.244,53.113c-0.699,0.676-1.396,1.353-2.088,2.04
		c0.089-0.09,0.175-0.182,0.265-0.271L160.837,314.36l-32.818,32.857l32.818,32.857l65.636,65.713l32.818,32.857l30.795-30.831
		l2.023-2.025l51.923-51.984l2.022-2.024l22.58,22.607l36.905,36.949l6.151,6.158l11.691-11.705 M326.979,212.71l0.028,0.028"/>
	<path class="st1" d="M895.849,278.03c-0.543-13.567-2.907-26.523-6.537-38.937c-1.022,1.287-1.777,2.785-2.931,3.989
		l-53.257,59.307c-27.122,30.207-73.057,32.175-102.499,4.39c-29.441-27.785-31.323-74.827-4.202-105.034l53.214-59.305
		c2.795-3.095,5.909-5.716,9.07-8.25c-16.787-5.454-34.626-8.244-53.223-7.447c-85.059,3.643-151.178,77.268-147.69,164.479
		c0.838,20.956,5.635,40.782,13.607,58.768L358.308,600.84c-23.819-13.42-51.408-20.553-80.553-19.304
		c-85.059,3.643-151.176,77.313-147.691,164.435c0.543,13.567,2.907,26.523,6.537,38.937c1.022-1.287,1.777-2.785,2.931-3.989
		l53.257-59.307c27.122-30.208,73.057-32.175,102.499-4.39c29.441,27.785,31.323,74.827,4.202,105.034l-53.214,59.305
		c-2.795,3.095-5.909,5.716-9.07,8.25c16.787,5.454,34.626,8.244,53.223,7.447c85.059-3.643,151.178-77.268,147.689-164.479
		c-0.801-20.019-5.215-39.008-12.556-56.347l244.261-252.052c23.309,12.629,50.09,19.296,78.337,18.086
		C833.216,438.822,899.334,365.152,895.849,278.03z"/>
</g>
</svg>
