<?xml version="1.0" encoding="utf-8"?>
<!-- Generator: Adobe Illustrator 21.0.0, SVG Export Plug-In . SVG Version: 6.00 Build 0)  -->
<svg version="1.1" id="图层_1" xmlns="http://www.w3.org/2000/svg" xmlns:xlink="http://www.w3.org/1999/xlink" x="0px" y="0px"
	 viewBox="0 0 1024 1024" style="enable-background:new 0 0 1024 1024;" xml:space="preserve">
<style type="text/css">
	.st0{fill:#616B77;}
	.st1{fill:#EC5353;}
	.st2{fill:#FFFFFF;}
	.st3{fill:none;}
</style>
<path class="st3" d="M960,576v-64v-68.531v-64.951c23.633-4.816,45.386-14.86,64-28.864c38.837-29.22,64-75.685,64-127.919
	c0-52.234-25.163-98.699-64-127.919v159.919H832V93.815c-38.837,29.22-64,75.685-64,127.919c0,52.234,25.163,98.699,64,127.919
	c18.613,14.004,40.367,24.048,64,28.864v64.951V512v64v64v86.5v64v-17.049c-23.633,4.816-45.387,14.86-64,28.864
	c-38.837,29.22-64,75.685-64,127.919c0,52.234,25.163,98.699,64,127.919V898.234h192v159.919c38.837-29.22,64-75.685,64-127.919
	c0-52.234-25.163-98.699-64-127.919c-18.614-14.004-40.367-24.048-64-28.864V790.5v-64V640V576z"/>
<path d="M256,511.5c0-1.503,0.03-3.001,0.055-4.5H256V511.5z"/>
<g>
	<g>
		<g>
			<polygon class="st1" points="964.535,799.225 738.261,572.951 693.006,618.205 919.281,844.48 874.026,889.734 647.752,663.46 
				602.497,708.715 828.771,934.989 874.026,980.244 919.281,934.989 964.535,889.734 1009.79,844.48 			"/>
		</g>
		<path class="st1" d="M421.503,437.182l-17.517-17.517l-10.043-10.043l-62.95-62.95l-45.255-45.255l-39.367,39.367l-47.562,47.562
			l-3.58,3.58l-90.51-90.51l60.442-60.442l120.223-120.223c57.659-57.659,125.804-81.806,196.929-52.679
			c-22.627,18.385-38.986,30.5-61.165,52.679c-25.377,25.377-40.394,57.25-45.06,90.315c-6.768,47.964,8.249,98.44,45.06,135.252
			l44.274,44.274l1.334,1.334l45.255-45.255l-38.895-38.895l38.31,38.31l-45.023-45.023c-37.236-37.236-36.678-97.273,0-135.057
			c93.692-96.52,136.118-90.863,136.118-90.863l0,0C557.268,29.889,493.914-0.801,424.332-0.801
			c-68.079,0-132.161,25.953-180.981,73.155c-0.963,0.931-1.926,1.864-2.879,2.81c0.123-0.124,0.242-0.25,0.365-0.373
			L59.465,256.163L14.21,301.418l45.255,45.255l90.51,90.51l45.255,45.255l42.465-42.465l2.79-2.79l42.467-42.467l2.788-2.788
			l31.137,31.137l50.891,50.891l8.481,8.481L421.503,437.182z M285.385,119.338l3.182-3.182l0.039,0.039
			C287.528,117.237,286.448,118.275,285.385,119.338z"/>
		<path class="st1" d="M495.239,725.485l0.864-0.864l61.165-61.165l45.255-45.255l45.255-45.255l62.051-62.051
			c23.854,8.493,49.244,12.92,75.316,12.92c59.832,0,116.084-23.3,158.392-65.608s65.608-98.56,65.608-158.392
			c0-26.072-4.427-51.462-12.92-75.316c-7.478-21.004-18.118-40.812-31.663-58.847l-45.928,45.928l-88.235,88.235l-45.255-45.255
			l88.235-88.235l45.928-45.928c-18.036-13.545-37.843-24.185-58.847-31.663c-23.854-8.493-49.244-12.92-75.316-12.92
			c-59.832,0-116.084,23.3-158.392,65.608c-42.308,42.308-65.608,98.559-65.608,158.392c0,26.071,4.427,51.461,12.92,75.316
			l-62.051,62.051l-45.255,45.255l-45.255,45.255l-61.165,61.165l-0.864,0.864c-23.854-8.493-49.244-12.92-75.316-12.92
			c-59.832,0-116.084,23.3-158.392,65.608c-42.308,42.308-65.608,98.56-65.608,158.392c0,26.071,4.428,51.462,12.92,75.316
			c7.478,21.004,18.118,40.812,31.663,58.847l45.928-45.928l88.235-88.235l45.255,45.255l-88.235,88.235l-45.928,45.928
			c18.036,13.545,37.843,24.185,58.847,31.663c23.854,8.493,49.244,12.92,75.316,12.92c59.833,0,116.084-23.3,158.392-65.608
			c42.308-42.308,65.608-98.559,65.608-158.392C508.159,774.73,503.731,749.339,495.239,725.485z M405.593,634.112l61.165-61.165
			l45.255-45.255l45.255-45.255l48.459-48.459l45.928-45.928c-13.305-20.117-21.586-42.601-24.845-65.665
			c-6.801-48.124,8.262-98.772,45.198-135.707c36.935-36.935,87.583-51.998,135.707-45.198l-113.08,113.08l135.765,135.764
			l113.08-113.08c6.801,48.124-8.262,98.772-45.198,135.707s-87.583,51.998-135.707,45.198
			c-23.064-3.259-45.548-11.54-65.665-24.845l-45.928,45.928l-48.459,48.459l-45.255,45.255l-45.255,45.255l-61.165,61.165
			l-33.2,33.2c13.305,20.117,21.585,42.6,24.845,65.665c6.801,48.124-8.262,98.772-45.198,135.707
			c-36.935,36.935-87.583,51.998-135.707,45.197l113.08-113.08L238.904,710.291l-113.08,113.08
			c-6.801-48.124,8.262-98.772,45.197-135.707c36.935-36.935,87.583-51.998,135.707-45.198c23.064,3.259,45.548,11.54,65.665,24.845
			"/>
	</g>
</g>
</svg>
