<?xml version="1.0" encoding="utf-8"?>
<!-- Generator: Adobe Illustrator 21.0.0, SVG Export Plug-In . SVG Version: 6.00 Build 0)  -->
<svg version="1.1" id="图层_1" xmlns="http://www.w3.org/2000/svg" xmlns:xlink="http://www.w3.org/1999/xlink" x="0px" y="0px"
	 viewBox="0 0 1024 1024" style="enable-background:new 0 0 1024 1024;" xml:space="preserve">
<style type="text/css">
	.st0{fill:#EC5353;}
	.st1{fill:#FFFFFF;}
	.st2{fill:#616B77;}
</style>
<path class="st1" d="M944.932,721.666c-28.837-22.357-62.445-41.432-85.855-50.581c34.258,50.397,21.94,96.098,6.143,132.226
	c-7.395-34.067-18.105-74.353-23.787-115.334c-1.618-11.666,8.104-29.23,18.289-37.398
	c36.166-29.003,164.276-144.701,164.276-144.701l-15.294-17.599L851.318,610.516c0,0-79.335,66.862-168.547,99.318
	c-79.704,28.996-180.902,37.578-180.902,37.578l-2.085-28.48c0,0,89.379-36.881,161.418-76.963
	c113.648-63.234,128.382-134.71,130.546-170.782c1.972-32.872,2.891-81.505-23.437-154.957
	c-30.472-85.005-148.142-164.136-148.142-164.136s-56.185,8.355-84.304,12.363c-22.991,3.277-84.667,11.545-84.667,11.545
	l-11.395-87.658l-10.957,1.845l5.289,88.234l-65.566,9.431c-11.966,1.922-24.447,4.076-36.976,5.897
	c-13.156,1.912-51.696,7.604-51.696,7.604s134.484,130.679,63.139,353.709c-15.958,49.887-47.199,92.142-82.788,131.489
	c-38.457-24.54-81.19-43.165-76.4-99.961c0.838-9.936-0.23-24.123-7.194-32.498c-8.454-10.168-29.453-8.662-37.982,0.406
	c-9.81,10.43-11.09,24.456,0.404,31.731c13.779,8.722,13.038,19.942,13.293,32.248c0.284,13.591-87.777,186.065,49.377,265.093
	c14.403,6.335,28.447,11.987,43.13,17.079c-81.624,0-163.248,0-244.874,0c165.355,30.241,330.904,36.947,499.084,34.568
	c107.926,0.859,413.364-8.869,413.364-8.869C1021.697,882.601,1003.443,767.029,944.932,721.666z M474.01,746.941l-40.443-0.045
	l39.193-17.823L474.01,746.941z M594.406,593.386c12.512-1.152,52.019-4.552,58.955,22.275
	c3.983,15.403-49.879,37.318-93.734,56.984c-33.298,14.932-61.786,27.901-61.786,27.901l-5.872-86.485
	C526.358,603.914,561.037,596.455,594.406,593.386z M464.812,622.66l7.335,89.647l-54.008,24.029c0,0-42.211-20.82-91.659-20.257
	c-28.789,0.327-62.881,6.6-73.938,10.969C303.395,692.571,381.949,650.625,464.812,622.66z"/>
</svg>
