<?xml version="1.0" encoding="utf-8"?>
<!-- Generator: Adobe Illustrator 21.0.0, SVG Export Plug-In . SVG Version: 6.00 Build 0)  -->
<svg version="1.1" id="图层_1" xmlns="http://www.w3.org/2000/svg" xmlns:xlink="http://www.w3.org/1999/xlink" x="0px" y="0px"
	 viewBox="0 0 1024 1024" style="enable-background:new 0 0 1024 1024;" xml:space="preserve">
<style type="text/css">
	.st0{fill:#EC5353;}
	.st1{fill:#FFFFFF;}
	.st2{fill:#616B77;}
</style>
<path class="st0" d="M943.593,395.694c-4.78-17.754-10.527-35.167-17.413-52.067c-19.973-49.165-48.596-94.404-84.275-133.611
	c-14.397-15.819-29.989-30.614-46.605-44.271c-53.775-44.215-118.702-76.593-191.54-91.957
	C403.06,31.336,205.545,130.463,114.612,303.452c-8.422,16.047-16.047,32.663-22.534,49.905
	c-7.967,21.168-14.454,43.19-19.291,65.952C26.069,640.155,150.86,857.301,356.91,932.528c19.746,7.227,40.231,13.202,61.4,17.697
	c0.171,0.057,0.398,0.057,0.569,0.114c241.843,50.815,479.191-103.85,530.347-345.693
	C964.42,533.061,961.404,461.874,943.593,395.694z M889.363,388.695c-53.262,57.587-121.092,102.598-199.392,129.173
	c-9.275-12.007-22.534-21.111-38.581-24.526c-35.11-7.398-69.366,14.454-78.016,48.938c-66.919,5.577-132.701-2.845-193.873-23.445
	c25.493-65.155,65.44-123.824,115.914-172.591c3.869,1.65,7.967,3.016,12.234,3.926c35.907,7.568,71.13-15.364,78.699-51.214
	c1.593-7.454,1.536-14.795,0.626-21.965c40.402-23.615,84.446-42.451,132.359-53.774c18.266-4.325,36.589-7.454,54.799-9.674
	C827.395,260.546,867.284,321.206,889.363,388.695z M593.347,122.667c47.686,10.072,91.502,28.395,130.424,52.978
	c-5.008,1.024-9.958,1.992-14.966,3.13c-51.555,12.291-99.07,32.435-142.716,57.644c-8.479-7.796-18.892-13.657-30.956-16.218
	c-35.907-7.568-71.13,15.364-78.699,51.214c-3.3,15.421-0.683,30.558,5.918,43.589c-54.457,53.092-97.648,116.654-125.246,187.329
	c-74.601-33.175-140.44-84.844-190.345-150.739C220.966,182.645,405.677,83.005,593.347,122.667z M121.668,429.666
	c1.992-9.446,4.439-18.665,7.056-27.826c52.864,62.31,119.328,111.305,193.645,143.683c-6.544,22.193-11.608,44.841-15.193,67.887
	c-24.241,5.747-44.271,24.753-49.791,50.702c-7.17,33.915,13.031,66.919,45.523,76.878c2.219,25.436,6.146,51.043,12.234,76.593
	c3.926,16.502,8.649,32.549,13.942,48.312C173.337,786,83.713,609.199,121.668,429.666z M900.346,594.347
	c-45.466,215.041-256.638,352.465-471.679,306.998c-14.112-3.016-27.883-6.715-41.312-11.096
	c-11.552-26.404-21.055-54.116-27.94-83.137c-5.406-22.819-8.991-45.58-11.039-68.285c19.177-8.251,34.256-25.266,38.923-47.231
	c6.373-30.045-8.82-59.408-34.939-72.667c3.073-19.29,7.284-38.297,12.576-56.904c67.261,22.648,139.7,31.923,213.448,25.607
	c8.706,17.583,24.867,31.297,45.523,35.679c35.907,7.568,71.13-15.364,78.699-51.214c0.74-3.642,1.024-7.227,1.195-10.812
	c76.365-25.778,143.626-67.602,198.71-120.922C911.613,489.87,911.442,541.995,900.346,594.347z"/>
</svg>
