<?xml version="1.0" encoding="utf-8"?>
<!-- Generator: Adobe Illustrator 17.0.0, SVG Export Plug-In . SVG Version: 6.00 Build 0)  -->
<!DOCTYPE svg PUBLIC "-//W3C//DTD SVG 1.1//EN" "http://www.w3.org/Graphics/SVG/1.1/DTD/svg11.dtd">
<svg version="1.1" id="图层_1" xmlns="http://www.w3.org/2000/svg" xmlns:xlink="http://www.w3.org/1999/xlink" x="0px" y="0px"
	 width="16px" height="16px" viewBox="0 0 16 16" enable-background="new 0 0 16 16" xml:space="preserve">
<path fill="#616B77" d="M15.602,5.956c-0.084-0.312-0.185-0.618-0.306-0.915c-0.351-0.864-0.854-1.659-1.481-2.348
	c-0.253-0.278-0.527-0.538-0.819-0.778C12.051,1.138,10.91,0.569,9.63,0.299C6.103-0.447,2.632,1.295,1.034,4.335
	C0.886,4.617,0.752,4.909,0.638,5.212c-0.14,0.372-0.254,0.759-0.339,1.159c-0.821,3.881,1.372,7.697,4.993,9.019
	c0.347,0.127,0.707,0.232,1.079,0.311c0.003,0.001,0.007,0.001,0.01,0.002c4.25,0.893,8.421-1.825,9.32-6.075
	C15.968,8.37,15.915,7.119,15.602,5.956z M14.649,5.833c-0.936,1.012-2.128,1.803-3.504,2.27c-0.163-0.211-0.396-0.371-0.678-0.431
	c-0.617-0.13-1.219,0.254-1.371,0.86C7.92,8.63,6.764,8.482,5.689,8.12c0.448-1.145,1.15-2.176,2.037-3.033
	c0.068,0.029,0.14,0.053,0.215,0.069c0.631,0.133,1.25-0.27,1.383-0.9c0.028-0.131,0.027-0.26,0.011-0.386
	c0.71-0.415,1.484-0.746,2.326-0.945c0.321-0.076,0.643-0.131,0.963-0.17C13.56,3.581,14.261,4.647,14.649,5.833z M9.447,1.158
	c0.838,0.177,1.608,0.499,2.292,0.931c-0.088,0.018-0.175,0.035-0.263,0.055C10.57,2.36,9.735,2.714,8.968,3.157
	C8.819,3.02,8.636,2.917,8.424,2.872c-0.631-0.133-1.25,0.27-1.383,0.9C6.983,4.043,7.029,4.309,7.145,4.538
	C6.188,5.471,5.429,6.588,4.944,7.83C3.633,7.247,2.476,6.339,1.599,5.181C2.903,2.212,6.149,0.461,9.447,1.158z M1.158,6.553
	c0.035-0.166,0.078-0.328,0.124-0.489C2.211,7.159,3.379,8.02,4.685,8.589C4.57,8.979,4.481,9.377,4.418,9.782
	c-0.426,0.101-0.778,0.435-0.875,0.891c-0.126,0.596,0.229,1.176,0.8,1.351c0.039,0.447,0.108,0.897,0.215,1.346
	c0.069,0.29,0.152,0.572,0.245,0.849C2.066,12.815,0.491,9.708,1.158,6.553z M14.842,9.447c-0.799,3.779-4.51,6.194-8.289,5.395
	c-0.248-0.053-0.49-0.118-0.726-0.195c-0.203-0.464-0.37-0.951-0.491-1.461c-0.095-0.401-0.158-0.801-0.194-1.2
	c0.337-0.145,0.602-0.444,0.684-0.83c0.112-0.528-0.155-1.044-0.614-1.277c0.054-0.339,0.128-0.673,0.221-1
	c1.182,0.398,2.455,0.561,3.751,0.45c0.153,0.309,0.437,0.55,0.8,0.627c0.631,0.133,1.25-0.27,1.383-0.9
	c0.013-0.064,0.018-0.127,0.021-0.19c1.342-0.453,2.524-1.188,3.492-2.125C15.04,7.611,15.037,8.527,14.842,9.447z"/>
</svg>
