<?xml version="1.0" encoding="utf-8"?>
<!-- Generator: Adobe Illustrator 21.0.0, SVG Export Plug-In . SVG Version: 6.00 Build 0)  -->
<svg version="1.1" id="图层_1" xmlns="http://www.w3.org/2000/svg" xmlns:xlink="http://www.w3.org/1999/xlink" x="0px" y="0px"
	 viewBox="0 0 1024 1024" style="enable-background:new 0 0 1024 1024;" xml:space="preserve">
<style type="text/css">
	.st0{fill:#EC5353;}
	.st1{fill:#FFFFFF;}
	.st2{fill:#616B77;}
</style>
<g>
	<path class="st1" d="M333.885,291.559c28.728-16.68,73.872-16.68,102.6-8.34c28.728,8.34,49.248,20.851,49.248,20.851
		s-16.416-54.211,36.936-54.211c53.352,4.17,106.703,45.871,135.431,66.722c24.624,20.851,77.976,62.552,106.703,75.062
		c0,0-12.312,12.51-57.456,4.17c-32.832-8.34-49.248-33.361-94.392-58.382s-69.768-12.51-82.08,0
		c-12.312,8.34-8.208,20.851,8.208,37.531c12.312,12.51,28.728,20.851,41.04,20.851s24.624-4.17,24.624-4.17
		s8.208,37.531-24.624,37.531s-61.56-29.191-77.976-45.871c-12.312-12.51-32.832-33.361-57.456-41.701
		c-20.52-8.34-65.664-25.021-114.911,12.51c-20.52,16.68-20.52,75.062-20.52,75.062s-20.52-29.191-20.52-50.041
		C288.742,354.11,292.846,320.749,333.885,291.559z"/>
	<path class="st1" d="M512,65.75L128.167,288.875v446.251L512,958.25l383.833-223.124V288.875L512,65.75z M490.816,881.456
		c3.38-4.633,6.594-9.266,8.874-13.899c66.787-113.105,44.524-237.521,44.524-237.521s-27.828,113.105-89.049,192.278
		c-6.789,6.898-15.645,15.898-24.049,24.437L183.628,702.885V321.116L512,130.23l328.372,190.886v238.127
		c-6.935-8.002-14.63-16.39-23.445-25.346C722.313,443.413,599.87,432.102,599.87,432.102s105.746,56.553,166.967,135.726
		c35.925,41.719,57.644,97.849,69.538,137.38l-147.112,85.518c1.021-26.769,3.42-61.478-5.909-104.137
		c-22.262-130.071-116.877-214.9-116.877-214.9s55.655,113.105,55.655,209.244c0,60.298-14.975,124.397-26.502,164.222L512,893.77
		L490.816,881.456z"/>
</g>
</svg>
