<?xml version="1.0" encoding="utf-8"?>
<!-- Generator: Adobe Illustrator 21.0.0, SVG Export Plug-In . SVG Version: 6.00 Build 0)  -->
<svg version="1.1" id="图层_1" xmlns="http://www.w3.org/2000/svg" xmlns:xlink="http://www.w3.org/1999/xlink" x="0px" y="0px"
	 viewBox="0 0 1024 1024" style="enable-background:new 0 0 1024 1024;" xml:space="preserve">
<style type="text/css">
	.st0{fill:#EC5353;}
	.st1{fill:#FFFFFF;}
	.st2{fill:#616B77;}
</style>
<path d="M256,511.5c0-1.503,0.03-3.001,0.055-4.5H256V511.5z"/>
<g>
	<path class="st2" d="M333.719,294.309c28.728-16.68,73.872-16.68,102.6-8.34c28.728,8.34,49.248,20.851,49.248,20.851
		s-16.416-54.211,36.936-54.211c53.352,4.17,106.703,45.871,135.431,66.722c24.624,20.851,77.976,62.552,106.703,75.062
		c0,0-12.312,12.51-57.456,4.17c-32.832-8.34-49.248-33.361-94.392-58.382c-45.144-25.021-69.768-12.51-82.08,0
		c-12.312,8.34-8.208,20.851,8.208,37.531c12.312,12.51,28.728,20.851,41.04,20.851s24.624-4.17,24.624-4.17
		s8.208,37.531-24.624,37.531c-32.832,0-61.56-29.191-77.976-45.871c-12.312-12.51-32.832-33.361-57.456-41.701
		c-20.52-8.34-65.664-25.021-114.911,12.51c-20.52,16.68-20.52,75.062-20.52,75.062s-20.52-29.191-20.52-50.041
		C288.575,356.86,292.679,323.499,333.719,294.309z"/>
	<path class="st2" d="M511.833,68.5L128,291.625v446.251L511.833,961l383.833-223.124V291.625L511.833,68.5z M490.649,884.206
		c3.38-4.633,6.594-9.266,8.874-13.899c66.787-113.105,44.524-237.521,44.524-237.521s-27.828,113.105-89.049,192.278
		c-6.789,6.898-15.645,15.898-24.049,24.437L183.461,705.635V323.866L511.833,132.98l328.372,190.886v238.127
		c-6.935-8.002-14.63-16.39-23.445-25.346c-94.615-90.484-217.057-101.794-217.057-101.794s105.746,56.553,166.967,135.726
		c35.925,41.719,57.644,97.849,69.538,137.38l-147.112,85.518c1.021-26.769,3.42-61.478-5.909-104.137
		c-22.262-130.071-116.877-214.9-116.877-214.9s55.655,113.105,55.655,209.244c0,60.298-14.975,124.397-26.502,164.222
		l-83.63,48.615L490.649,884.206z"/>
</g>
</svg>
