<?xml version="1.0" encoding="utf-8"?>
<!-- Generator: Adobe Illustrator 21.0.0, SVG Export Plug-In . SVG Version: 6.00 Build 0)  -->
<svg version="1.1" id="图层_1" xmlns="http://www.w3.org/2000/svg" xmlns:xlink="http://www.w3.org/1999/xlink" x="0px" y="0px"
	 viewBox="0 0 1024 1024" style="enable-background:new 0 0 1024 1024;" xml:space="preserve">
<style type="text/css">
	.st0{fill:#EC5353;}
	.st1{fill:#FFFFFF;}
	.st2{fill:#616B77;}
</style>
<path d="M256,511.5c0-1.503,0.03-3.001,0.055-4.5H256V511.5z"/>
<g>
	<path class="st2" d="M304.186,259.087c33.518-19.139,86.189-19.139,119.707-9.569s57.459,23.923,57.459,23.923
		s-19.153-62.201,43.095-62.201c62.248,4.785,124.496,52.632,158.014,76.555c28.73,23.923,90.977,71.77,124.495,86.124
		c0,0-14.365,14.354-67.036,4.785c-38.306-9.569-57.459-38.277-110.131-66.986c-52.671-28.708-81.401-14.354-95.766,0
		c-14.365,9.569-9.577,23.923,9.577,43.062c14.365,14.354,33.518,23.923,47.883,23.923s28.73-4.785,28.73-4.785
		s9.577,43.062-28.73,43.062s-71.824-33.493-90.978-52.632c-14.365-14.354-38.306-38.278-67.036-47.847
		c-23.941-9.569-76.613-28.708-134.072,14.354c-23.941,19.139-23.941,86.124-23.941,86.124s-23.941-33.493-23.941-57.416
		C251.515,330.858,256.303,292.58,304.186,259.087z"/>
	<path class="st2" d="M512,0L64.165,256.008v512.018L512,1024.033l447.835-256.007V256.008L512,0z M487.284,935.921
		c3.943-5.316,7.694-10.632,10.354-15.947c77.923-129.774,51.948-272.525,51.948-272.525s-32.468,129.774-103.897,220.616
		c-7.921,7.915-18.254,18.241-28.059,28.039L128.874,731.034V293.001L512,73.983l383.126,219.018v273.222
		c-8.091-9.181-17.069-18.805-27.354-29.082c-110.391-103.819-253.25-116.797-253.25-116.797S737.9,485.231,809.329,576.073
		c41.916,47.867,67.256,112.269,81.133,157.626L718.82,831.82c1.192-30.714,3.991-70.538-6.895-119.485
		C685.951,563.095,575.56,465.765,575.56,465.765s64.935,129.774,64.935,240.082c0,69.185-17.472,142.73-30.921,188.424L512,950.05
		L487.284,935.921z"/>
</g>
</svg>
