<?xml version="1.0" encoding="utf-8"?>
<!-- Generator: Adobe Illustrator 21.0.0, SVG Export Plug-In . SVG Version: 6.00 Build 0)  -->
<svg version="1.1" id="图层_1" xmlns="http://www.w3.org/2000/svg" xmlns:xlink="http://www.w3.org/1999/xlink" x="0px" y="0px"
	 viewBox="0 0 16 16" style="enable-background:new 0 0 16 16;" xml:space="preserve">
<style type="text/css">
	.st0{fill:#FFFFFF;}
	.st1{fill:#EC5353;}
	.st2{fill:#616B77;}
</style>
<g>
	<path class="st2" d="M6.4,14.9c0.2-0.2,0.5-0.5,0.7-0.7c1.1-1.4,1.6-3.4,1.6-3.4S9.1,13,7.9,15c-0.1,0.2-0.3,0.4-0.4,0.6L8,15.9
		L9.5,15c0.2-0.6,0.6-2,0.6-3.3c0-1.7-1-3.7-1-3.7s1.7,1.5,2.1,3.8c0.2,0.9,0.1,1.6,0.1,2.1l2.7-1.6c-0.2-0.7-0.6-1.8-1.3-2.6
		c-1.1-1.4-3-2.4-3-2.4s2.2,0.2,3.9,1.8c0.5,0.5,0.8,0.9,1.1,1.3V4.1L8,0.1L1.2,4v7.9L6.4,14.9z M3.5,3.8C4.2,3.4,5.3,3.4,6,3.6
		c0.7,0.2,1.2,0.5,1.2,0.5S6.8,2.8,8.1,2.8c1.3,0.1,2.6,1.1,3.3,1.6C12,4.9,13.3,5.9,14,6.2c0,0-0.3,0.3-1.4,0.1
		c-0.8-0.2-1.2-0.8-2.3-1.4c-1.1-0.6-1.7-0.3-2,0C8,5.1,8.1,5.4,8.5,5.8c0.3,0.3,0.7,0.5,1,0.5c0.3,0,0.6-0.1,0.6-0.1
		s0.2,0.9-0.6,0.9c-0.8,0-1.5-0.7-1.9-1.1C7.3,5.7,6.8,5.2,6.2,5C5.7,4.8,4.6,4.4,3.4,5.3C2.9,5.7,2.9,7.1,2.9,7.1S2.4,6.4,2.4,5.9
		C2.4,5.3,2.5,4.5,3.5,3.8z"/>
</g>
</svg>
