<?xml version="1.0" encoding="utf-8"?>
<!-- Generator: Adobe Illustrator 21.0.0, SVG Export Plug-In . SVG Version: 6.00 Build 0)  -->
<svg version="1.1" id="图层_1" xmlns="http://www.w3.org/2000/svg" xmlns:xlink="http://www.w3.org/1999/xlink" x="0px" y="0px"
	 viewBox="0 0 1024 1024" style="enable-background:new 0 0 1024 1024;" xml:space="preserve">
<style type="text/css">
	.st0{fill:#0071BC;}
	.st1{fill:#616B77;}
	.st2{fill:#EC5353;}
	.st3{fill:#FFFFFF;}
</style>
<g>
	<g>
		<path class="st1" d="M455.87,328.627L259.935,180.383L64,328.627l0.909,0.688h-0.695v283.81v74.431L271.837,842.34l1.115-375.319
			L455.87,328.627z M259.935,254.833l97.534,73.793l-97.534,73.793l-97.533-73.793L259.935,254.833z M133.794,665.407V381.433
			l69.864,52.859l-0.316,285.855L133.794,665.407z"/>
		<path class="st1" d="M960,328.627L764.065,180.383L568.13,328.627l182.918,138.395l1.115,375.319l207.623-154.784v-74.431v-283.81
			h-0.695L960,328.627z M764.065,254.833l97.533,73.793l-97.533,73.793l-97.534-73.793L764.065,254.833z M890.206,665.407
			l-69.548,54.74l-0.316-285.855l69.864-52.859V665.407z"/>
		<path class="st1" d="M708.036,512.418h-0.064L512.106,364.228L316.173,512.47h-0.001v0.001l0,0l0,0v269.767v92.806l1.045,0.791
			l145.969,110.44l49.201,37.225l49.201-37.225l146.037-110.491l0.411-0.311v-92.806V512.475l0.005-0.004l-0.005-0.004V512.418z
			 M476.826,922.146l-91.075-68.907V565.115l91.075,68.907V922.146z M512.106,586.264l-97.533-73.793l97.533-73.793l97.534,73.793
			L512.106,586.264z M638.455,853.667l-92.049,69.644V634.762l92.049-69.643V853.667z"/>
		<path class="st1" d="M708.041,148.743L512.106,0.5L316.171,148.743l195.935,148.243L708.041,148.743z M512.106,74.95
			l97.534,73.793l-97.534,73.793l-97.533-73.793L512.106,74.95z"/>
	</g>
</g>
</svg>
