<?xml version="1.0" encoding="utf-8"?>
<!-- Generator: Adobe Illustrator 21.0.0, SVG Export Plug-In . SVG Version: 6.00 Build 0)  -->
<svg version="1.1" id="图层_1" xmlns="http://www.w3.org/2000/svg" xmlns:xlink="http://www.w3.org/1999/xlink" x="0px" y="0px"
	 viewBox="0 0 1024 1024" style="enable-background:new 0 0 1024 1024;" xml:space="preserve">
<style type="text/css">
	.st0{fill:#0071BC;}
	.st1{fill:#616B77;}
	.st2{fill:#EC5353;}
	.st3{fill:#FFFFFF;}
</style>
<g>
	<g>
		<path class="st2" d="M455.877,328.447l-195.91-148.388L64.058,328.447l0.909,0.689h-0.695v284.088v74.504l207.596,154.935
			l1.115-375.686L455.877,328.447z M259.967,254.582l97.521,73.865l-97.521,73.865l-97.521-73.865L259.967,254.582z
			 M133.843,665.557V381.305l69.855,52.911l-0.316,286.135L133.843,665.557z"/>
		<path class="st2" d="M959.942,328.447L764.033,180.059l-195.91,148.388l182.895,138.53l1.115,375.686l207.596-154.935v-74.504
			V329.136h-0.695L959.942,328.447z M764.033,254.582l97.521,73.865l-97.521,73.865l-97.521-73.865L764.033,254.582z
			 M890.157,665.557l-69.539,54.793l-0.316-286.135l69.855-52.911V665.557z"/>
		<path class="st2" d="M708.01,512.419h-0.064L512.106,364.083L316.198,512.47h-0.001v0.001l0,0l0,0v270.031V875.4l1.045,0.792
			l145.951,110.548L512.387,1024l49.194-37.261L707.599,876.14l0.411-0.311v-92.897V512.475l0.005-0.004l-0.005-0.004V512.419z
			 M476.831,922.547l-91.063-68.974V565.167l91.063,68.974V922.547z M512.106,586.337l-97.521-73.865l97.521-73.865l97.521,73.865
			L512.106,586.337z M638.439,854.001l-92.037,69.712V634.882l92.037-69.712V854.001z"/>
		<path class="st2" d="M708.016,148.388L512.106,0L316.196,148.388l195.909,148.388L708.016,148.388z M512.106,74.523l97.521,73.865
			l-97.521,73.865l-97.521-73.865L512.106,74.523z"/>
	</g>
</g>
</svg>
