<?xml version="1.0" encoding="utf-8"?>
<!-- Generator: Adobe Illustrator 21.0.0, SVG Export Plug-In . SVG Version: 6.00 Build 0)  -->
<svg version="1.1" id="图层_1" xmlns="http://www.w3.org/2000/svg" xmlns:xlink="http://www.w3.org/1999/xlink" x="0px" y="0px"
	 viewBox="0 0 1024 1024" style="enable-background:new 0 0 1024 1024;" xml:space="preserve">
<style type="text/css">
	.st0{fill:#EC5353;}
	.st1{fill:#FFFFFF;}
	.st2{fill:#616B77;}
</style>
<g>
	<path class="st0" d="M1024.5,424.006c-0.733,5.797-1.599,11.661-2.266,17.459c-3.998,34.318-12.861,67.17-29.786,97.423
		c-22.79,40.782-58.107,63.838-103.82,71.768c-24.722,4.265-49.578,2.466-74.433,2.865c-8.263,0.133-7.13-1.733-9.995,7.397
		c-4.132,13.127-9.129,25.788-18.125,36.45c-26.588,31.586-68.702,37.316-102.82,13.461c-9.129-6.397-17.126-14.393-25.788-21.524
		c-3.398-2.799-7.13-5.131-11.661-7.063c0.333,1.266,0.466,2.665,1,3.865c12.728,27.787,17.725,57.707,23.19,87.427
		c3.465,18.592,6.397,37.25,8.529,55.975c0.933,8.529,0.466,17.525-1.333,25.922c-3.199,15.06-15.06,24.522-30.653,24.389
		c-18.592-0.133-37.183-1.333-55.708-2.399c-15.26-0.866-30.52-2.266-45.779-3.132c-2.266-0.133-5.198,0.533-6.864,1.999
		c-13.727,12.061-27.388,24.122-40.715,36.717c-5.931,5.597-10.462,12.728-16.393,18.392c-8.463,8.13-18.858,13.127-30.52,14.993
		c-0.933,0.133-1.733,0.8-2.599,1.199c-4.265,0-8.596,0-12.861,0c-1.866-0.6-3.665-1.199-5.531-1.666
		c-9.796-2.399-18.392-7.063-25.788-13.927c-23.989-22.456-41.115-49.378-52.71-80.097c-6.397-16.926-3.998-31.186,9.596-43.38
		c1.199-1.066,2.199-2.332,3.865-4.265c-17.659,0-34.451,0-51.91,0c0,6.131,0.733,12.394-0.133,18.458
		c-1.733,11.262-7.53,21.057-13.927,30.253c-7.397,10.662-9.929,22.323-10.262,34.918c-0.133,5.731-0.866,11.528-2.266,17.059
		c-5.864,23.656-21.79,32.185-44.713,29.92c-32.519-3.132-63.771-12.728-95.09-21.324c-7.13-1.932-13.927-5.997-20.058-10.262
		c-11.861-8.13-15.46-18.925-11.528-32.785c2.132-7.397,5.131-14.527,7.73-21.857c0.6-1.666,1.133-3.332,1.866-5.464
		c-6.864-1.333-13.327-2.132-19.591-3.865c-46.579-12.994-77.432-41.715-88.96-89.693c-3.332-13.794,1.599-24.922,10.462-34.784
		c4.598-5.131,9.662-9.929,14.927-14.393c22.457-19.258,31.253-43.314,27.854-72.701c-1.533-13.194-0.733-26.655-0.8-39.982
		c-0.067-11.928,0.067-23.923,0.4-35.984c0.133-3.798-1-5.198-4.931-5.198c-5.064,0-10.262-0.333-15.193-1.266
		c-11.728-2.266-20.457-8.996-26.122-19.391c-2.399-4.465-3.998-9.329-6.064-13.994c-3.265-7.263-6.131-14.86-10.129-21.79
		c-8.263-14.393-9.063-28.787-0.666-43.114c17.392-29.72,43.714-47.645,76.499-56.708c0.267-0.067,0.6,0.133,1.666,0.4
		c-0.8,2.732-1.533,5.464-2.466,8.13c-3.199,8.996-3.732,17.592,0.6,26.721c7.263,15.326,5.731,30.919-0.466,47.245
		c-4.265-4.465-8.13-8.529-12.728-13.394c-3.865,11.995-7.397,22.923-11.262,34.984c9.862-2.799,17.725-6.93,23.989-13.061
		c6.597-6.53,13.394-13.461,17.992-21.39c42.514-73.167,106.419-115.881,188.315-133.073c21.59-4.598,43.38-8.796,62.438-20.524
		c9.996-6.131,19.325-13.66,28.187-21.457c6.131-5.398,12.261-10.395,19.791-13.527c3.998-1.666,7.863-3.398,11.795-5.064
		c11.262-4.731,20.391-11.661,28.187-21.524c35.251-44.58,82.229-69.968,137.338-80.897c15.26-3.065,30.919-4.198,46.379-6.264
		c1.799-0.267,3.465-0.8,5.264-1.199c6.264,0,12.528,0,18.792,0c3.199,0.6,6.331,1.333,9.596,1.799
		c24.922,3.798,47.445,13.66,67.636,28.254c27.721,20.058,54.775,41.115,81.963,61.905c23.056,17.659,44.98,36.583,62.239,60.239
		c6.264,8.596,13.194,16.792,19.858,25.255c1.466-0.866,2.466-1.399,3.398-2.066c12.194-8.996,23.589-18.325,32.519-31.119
		c19.791-28.321,57.441-24.056,70.635,7.397c14.727,34.984,25.055,71.235,28.72,109.151c0.6,5.997,1.466,11.995,2.199,18.059
		C1024.5,404.882,1024.5,414.411,1024.5,424.006z M507.571,354.829c0.657,0.065,1.38,0.065,2.104,0.129
		c0.394,1.677,0.855,3.354,1.183,5.096c3.813,22.447,7.691,44.895,11.504,67.342c4.273,24.963,8.874,49.862,9.466,75.341
		c0.526,25.479-2.629,50.249-12.161,74.115c-3.615,9.031-10.255,13.546-20.378,13.159c-3.484-0.193-7.297,0.065-10.452,1.419
		c-19.392,8.128-38.719,16.578-57.979,25.092c-16.697,7.418-33.065,15.61-50.025,22.447c-16.5,6.644-33.723,7.869-50.946,1.742
		c-15.777-5.612-28.595-15.545-40.756-26.511c-13.936-12.578-18.34-27.479-11.175-45.024c5.062-12.514,3.024-24.06-4.273-35.026
		c-3.287-4.967-6.639-9.869-10.058-14.707c-7.625-10.901-15.514-21.738-22.942-32.768c-10.255-15.094-11.57-30.768-2.104-46.83
		c1.709-2.903,3.221-5.934,4.799-8.902c14.002-25.415,27.609-51.087,46.344-73.534c12.293-14.642,25.243-28.769,37.733-43.282
		c1.183-1.355,0.92-3.87,1.315-5.805c-1.841-0.323-3.813-1.226-5.522-0.774c-12.358,2.903-24.52,6.257-36.878,9.16
		c-64.553,15.158-115.696,49.41-152.442,103.722c-26.623,39.347-41.611,82.565-40.362,130.169c0.46,17.416,3.09,34.961,6.376,52.119
		c7.823,40.573,23.928,78.05,47.461,112.366c12.424,18.061,17.552,37.735,13.147,59.086c-2.564,12.449-6.771,24.576-10.518,36.767
		c-5.719,18.706-1.578,27.414,17.683,31.865c26.492,6.128,53.312,11.288,80.001,16.642c10.452,2.064,19.326-3.612,21.627-13.739
		c1.183-5.096,1.446-10.385,1.972-15.61c0.723-7.482,1.118-15.029,5.916-21.351c15.908-20.899,22.35-44.701,22.285-70.438
		c0-10.966-0.592-21.996-0.855-32.961c-0.066-1.613,0.263-3.29,0.46-4.902c0.46-0.065,0.92-0.194,1.38-0.258
		c0.592,1.29,1.512,2.516,1.775,3.87c1.249,5.612,2.366,11.224,3.55,16.771c1.315,6.128,5.062,9.934,11.307,11.03
		c3.024,0.516,6.113,0.839,9.203,0.774c27.149-0.194,54.298-0.516,81.447-0.71c12.687-0.129,18.472-4.838,21.693-16.964
		c1.249-4.709,3.418-9.16,5.193-13.739c0.394,0.129,0.789,0.258,1.249,0.387c0,8.257,0,16.578,0,24.834c0,8.192,0,16.449,0,25.608
		c-4.667-4.193-8.809-4.064-13.147-1.355c-11.701,7.224-23.534,14.191-35.169,21.544c-11.701,7.418-13.936,15.223-7.165,27.221
		c7.099,12.514,14.659,24.834,22.679,36.832c5.785,8.643,12.358,16.836,19.129,24.769c6.639,7.805,15.382,13.03,26.032,10.901
		c9.006-1.742,17.157-6.257,22.942-13.61c13.279-17.094,29.844-30.768,47.527-43.024c36.155-25.028,61.2-58.505,79.081-97.724
		c12.753-27.93,21.43-57.086,28.135-86.887c2.432-10.708,0.526-14.126-8.546-20.383c-12.556-8.515-24.585-17.803-36.747-26.898
		c-0.723-0.581-0.986-1.806-1.446-2.645c1.117-0.129,2.498-0.645,3.353-0.193c4.733,2.451,9.269,5.289,14.002,7.805
		c5.719,2.967,11.307,6.579,17.42,8.45c25.703,7.87,46.541,22.77,65.933,40.573c7.625,7.031,16.434,13.03,25.308,18.513
		c7.362,4.58,15.974,6.257,24.848,5.289c29.384-3.096,50.157-22.641,54.561-51.41c0.526-3.483,0.723-7.031,1.117-11.417
		c-2.169,0.774-3.221,1.032-4.141,1.548c-4.996,2.838-6.968,7.547-8.677,12.772c-6.771,20.964-17.946,28.317-40.033,26.64
		c-3.55-0.258-7.1-0.774-10.649-0.709c-0.986,0-1.906,1.613-2.827,2.451c0.92,0.839,1.709,2.322,2.761,2.451
		c4.339,0.645,8.743,0.903,13.082,1.29c3.878,0.387,7.757,0.839,11.635,1.226c-0.263,1.355-0.723,1.742-1.315,2
		c-10.386,4.644-20.707,4.838-30.83-0.774c-9.466-5.225-13.344-13.546-12.095-23.673c1.643-14.062,4.076-28.059,6.376-42.057
		c1.38-8.579,3.09-17.094,4.733-26.189c24.059,12.578,48.973,20.319,74.611,25.608c24.585,5.031,49.105,10.837,74.611,9.289
		c31.948-2,59.754-13.288,82.696-35.155c36.418-34.639,48.25-79.34,52.392-126.879c1.578-18.513-1.38-36.896-3.55-55.215
		c-3.484-29.285-10.189-57.796-21.167-85.21c-1.775-4.515-4.47-8.902-7.691-12.643c-5.851-6.773-13.476-7.805-20.838-2.709
		c-4.667,3.29-8.94,7.418-12.556,11.869c-13.016,16.061-27.872,29.349-48.711,34.897c-8.086,2.193-12.095,8.385-11.833,16.706
		c0.197,5.676,1.315,11.353,2.038,17.029c3.747,29.478-1.972,57.796-10.846,85.661c-0.789,2.451-2.104,4.644-3.221,7.031
		c0-10.643,0.789-20.964,1.512-31.284c0.986-13.804,1.972-27.672,2.958-41.476c0.263-3.225-1.118-4.773-4.273-3.548
		c-6.113,2.451-12.556,4.515-18.012,8.063c-8.48,5.483-12.227,14.642-15.645,23.673c-2.564,6.837-4.996,13.675-7.494,20.448
		c-0.394-0.129-0.789-0.194-1.183-0.323c0.92-9.676,1.578-19.351,2.761-28.962c1.183-9.934,6.245-18.384,12.03-26.64
		c-8.283,0.903-16.105,2.193-21.627,8.579c-6.639,7.676-13.081,15.61-20.049,23.995c3.813-12.062,7.428-23.544,16.828-31.929
		c15.382-13.739,33.46-10.514,51.603-6.321c-1.643-9.095-8.546-15.352-17.617-16.19c-4.667-0.387-9.4,0-14.133-0.193
		c-2.892-0.129-5.719-0.645-8.546-0.968c3.221-2,6.311-2.903,9.335-4.064c9.203-3.483,9.729-5.483,3.747-13.352
		c-3.024-3.935-5.719-4.515-10.058-1.806c-2.432,1.484-4.602,3.354-6.902,5.031c-0.066-2.451,0.657-4.451,1.643-6.257
		c2.827-5.096,1.906-6.966-4.01-8.128c-2.038-0.387-4.076-1.032-6.114-1.484c15.974-7.611,32.013-13.094,49.828-13.417
		c-9.663-14.384-16.697-30.188-30.633-39.992c-13.673-9.611-29.121-16.836-43.78-25.028c0.592-0.581,1.643-1.742,3.484-3.677
		c-1.315-0.839-2.498-1.419-3.484-2.193c-21.036-16.836-42.137-33.607-63.172-50.507c-32.737-26.382-70.732-32.445-111.488-27.608
		c-26.294,3.161-51.471,10.45-75.334,21.802c-29.253,14.062-56.599,30.381-75.794,57.15c-0.855,1.226-1.775,2.387-3.353,4.644
		c16.631,0,32.013,0,47.396,0c0.066,0.645,0.131,1.29,0.197,1.935c-11.241,1.935-22.482,4.902-33.854,5.612
		c-37.009,2.258-66.722,17.61-90.519,45.411c-21.036,24.511-42.4,48.829-64.619,72.309c-23.271,24.64-41.282,52.442-55.35,82.823
		c-7.231,15.61-5.39,30.317,5.193,44.056c10.649,13.868,21.036,27.995,31.553,41.992c0.986,1.355,2.169,2.58,3.747,4.451
		c16.105-19.222,31.685-37.864,47.33-56.505c0.394,0.323,0.855,0.645,1.249,0.968c-0.986,1.613-1.906,3.225-2.892,4.773
		c-18.209,28.833-32.671,59.537-47.133,90.241c-3.747,8.063-3.287,15.997,1.578,23.737c16.237,25.931,55.613,40.508,86.509,24.705
		c7.757-3.999,15.382-8.321,23.402-11.74c27.938-11.74,55.941-23.221,84.011-34.639c7.757-3.161,13.673-7.998,16.5-15.868
		c6.508-17.997,8.48-36.638,7.56-55.602c-0.657-13.675-2.104-27.35-3.09-40.96c-1.906-25.157-4.141-50.249-5.456-75.341
		C505.533,375.663,506.98,365.214,507.571,354.829z M632.701,683.589c-0.586,0.938-0.88,1.29-0.997,1.642
		c-0.586,1.642-1.173,3.284-1.642,4.926c-9.559,32.548-21.816,63.865-41.169,92.074c-5.337,7.741-11.553,14.896-17.007,22.52
		c-1.232,1.701-1.408,4.516-1.232,6.744c0.059,0.645,3.108,1.466,4.809,1.466c19.294,0.117,38.53,0.117,57.825,0.059
		c14.31-0.059,21.933-8.034,21.582-22.344c-0.059-1.877-0.411-3.753-0.586-5.63c-1.818-16.069-3.812-32.196-5.513-48.265
		c-1.818-17.125-5.689-33.663-13.547-49.145C634.695,686.404,633.815,685.289,632.701,683.589z M82.936,657.221
		c-1.297,1.002-2.299,1.592-3.065,2.417c-9.019,9.314-18.215,18.451-26.998,28c-10.139,11.082-11.377,20.219-4.598,33.542
		c10.257,20.101,25.937,34.956,46.156,44.86c4.126,2.004,8.724,3.301,13.263,4.067c12.851,2.181,22.4-6.425,21.398-19.335
		c-0.236-3.065-1.415-6.248-2.83-9.078c-13.558-26.88-27.293-53.702-41.028-80.582C84.646,659.874,83.821,658.695,82.936,657.221z
		 M76.3,454.922c-1.672,0.888-3.083,1.463-4.337,2.351c-5.539,3.971-11.862,4.494-18.446,4.285
		c-5.748-0.157-9.458-3.135-11.809-7.995c-2.247-4.598-0.523-8.622,2.195-12.593c1.986-2.926,4.024-6.166,4.703-9.562
		c2.351-12.384,4.18-24.925,6.009-37.414c0.209-1.515-0.575-3.187-0.941-4.755c-0.523-0.104-0.993-0.209-1.411-0.314
		c-6.427,7.316-12.907,14.631-19.334,21.999c-7.211,8.256-7.838,18.028-6.166,28.113c1.881,11.287,8.152,20.797,13.325,30.725
		c2.195,4.18,6.375,6.636,11.182,6.584c4.86,0,9.824-0.366,14.527-1.463C74.366,472.845,78.86,464.38,76.3,454.922z"/>
	<path class="st0" d="M448.315,321.239c-24.871,25.609-34.318,59.927-50.702,90.629c0.443-2.509,0.517-5.166,1.402-7.528
		c9.889-26.274,19.779-52.547,29.89-78.747c7.528-19.262,22.067-28.635,42.51-29.816c18.008-1.033,36.015-2.583,54.171-3.395
		c-8.709,3.469-17.417,6.937-26.2,10.332c-16.532,6.347-28.192,17.786-36.015,33.432c-4.576,9.078-9.151,18.155-13.727,27.307
		c-0.517-0.074-0.959-0.148-1.476-0.221c0.738-13.727,1.476-27.528,2.214-41.255C449.717,321.682,448.979,321.46,448.315,321.239z"
		/>
	<g>
		<path class="st0" d="M711.764,399.866c-6.351-1.994-11.447-4.653-16.69-4.874c-3.249-0.148-7.237,2.806-9.896,5.391
			c-3.176,3.102-5.317,7.311-8.345,11.595c-2.585-4.431-4.874-8.271-7.016-12.185c-1.329-2.511-2.954-2.88-5.317-1.403
			c-3.988,2.437-8.05,4.8-12.555,7.385c22.82-40.47,48.225-58.564,82.27-57.087c-3.766,3.102-6.647,5.539-9.896,8.197
			c1.255,0.96,2.142,1.92,3.176,2.437c8.567,4.062,14.253,10.93,17.577,19.423c1.846,4.579,4.136,6.351,8.862,5.465
			c2.659-0.517,5.391-0.517,8.641,0.074c-26.734,17.65-53.542,35.301-80.276,52.951c-0.369-0.295-0.665-0.665-1.034-0.96
			C691.16,424.532,701.056,412.716,711.764,399.866z"/>
		<path class="st0" d="M616.94,343.222c-12.112-28.58,13.367-55.758,42.834-59.598C638.578,298.838,622.552,316.636,616.94,343.222z
			"/>
	</g>
</g>
</svg>
