<?xml version="1.0" encoding="utf-8"?>
<!-- Generator: Adobe Illustrator 21.0.0, SVG Export Plug-In . SVG Version: 6.00 Build 0)  -->
<svg version="1.1" id="图层_1" xmlns="http://www.w3.org/2000/svg" xmlns:xlink="http://www.w3.org/1999/xlink" x="0px" y="0px"
	 viewBox="0 0 1024 1024" style="enable-background:new 0 0 1024 1024;" xml:space="preserve">
<style type="text/css">
	.st0{fill:#616B77;}
</style>
<g>
	<path class="st0" d="M1024,427.488c-0.704,5.568-1.536,11.2-2.176,16.768c-3.84,32.96-12.352,64.512-28.608,93.568
		c-21.888,39.168-55.808,61.312-99.712,68.928c-23.744,4.096-47.616,2.368-71.488,2.752c-7.936,0.128-6.848-1.664-9.6,7.104
		c-3.968,12.608-8.768,24.768-17.408,35.008c-25.536,30.336-65.984,35.84-98.752,12.928c-8.768-6.144-16.448-13.824-24.768-20.672
		c-3.264-2.688-6.848-4.928-11.2-6.784c0.32,1.216,0.448,2.56,0.96,3.712c12.224,26.688,17.024,55.424,22.272,83.968
		c3.328,17.856,6.144,35.776,8.192,53.76c0.896,8.192,0.448,16.832-1.28,24.896c-3.072,14.464-14.464,23.552-29.44,23.424
		c-17.856-0.128-35.712-1.28-53.504-2.304c-14.656-0.832-29.312-2.176-43.968-3.008c-2.176-0.128-4.992,0.512-6.592,1.92
		c-13.184,11.584-26.304,23.168-39.104,35.264c-5.696,5.376-10.048,12.224-15.744,17.664c-8.128,7.808-18.112,12.608-29.312,14.4
		c-0.896,0.128-1.664,0.768-2.496,1.152c-4.096,0-8.256,0-12.352,0c-1.792-0.576-3.52-1.152-5.312-1.6
		c-9.408-2.304-17.664-6.784-24.768-13.376c-23.04-21.568-39.488-47.424-50.624-76.928c-6.144-16.256-3.84-29.952,9.216-41.664
		c1.152-1.024,2.112-2.24,3.712-4.096c-16.96,0-33.088,0-49.856,0c0,5.888,0.704,11.904-0.128,17.728
		c-1.664,10.816-7.232,20.224-13.376,29.056c-7.104,10.24-9.536,21.44-9.856,33.536c-0.128,5.504-0.832,11.072-2.176,16.384
		c-5.632,22.72-20.928,30.912-42.944,28.736c-31.232-3.008-61.248-12.224-91.328-20.48c-6.848-1.856-13.376-5.76-19.264-9.856
		c-11.392-7.808-14.848-18.176-11.072-31.488c2.048-7.104,4.928-13.952,7.424-20.992c0.576-1.6,1.088-3.2,1.792-5.248
		c-6.592-1.28-12.8-2.048-18.816-3.712c-44.736-12.48-74.368-40.064-85.44-86.144c-3.2-13.248,1.536-23.936,10.048-33.408
		c4.416-4.928,9.28-9.536,14.336-13.824c21.568-18.496,30.016-41.6,26.752-69.824c-1.472-12.672-0.704-25.6-0.768-38.4
		c-0.064-11.456,0.064-22.976,0.384-34.56c0.128-3.648-0.96-4.992-4.736-4.992c-4.864,0-9.856-0.32-14.592-1.216
		c-11.264-2.176-19.648-8.64-25.088-18.624c-2.304-4.288-3.84-8.96-5.824-13.44c-3.136-6.976-5.888-14.272-9.728-20.928
		c-7.936-13.824-8.704-27.648-0.64-41.408c16.704-28.544,41.984-45.76,73.472-54.464c0.256-0.064,0.576,0.128,1.6,0.384
		c-0.768,2.624-1.472,5.248-2.368,7.808c-3.072,8.64-3.584,16.896,0.576,25.664c6.976,14.72,5.504,29.696-0.448,45.376
		c-4.096-4.288-7.808-8.192-12.224-12.864c-3.712,11.52-7.104,22.016-10.816,33.6c9.472-2.688,17.024-6.656,23.04-12.544
		c6.336-6.272,12.864-12.928,17.28-20.544c40.832-70.272,102.208-111.296,180.864-127.808c20.736-4.416,41.664-8.448,59.968-19.712
		c9.6-5.888,18.56-13.12,27.072-20.608c5.888-5.184,11.776-9.984,19.008-12.992c3.84-1.6,7.552-3.264,11.328-4.864
		c10.816-4.544,19.584-11.2,27.072-20.672c33.856-42.816,78.976-67.2,131.904-77.696c14.656-2.944,29.696-4.032,44.544-6.016
		c1.728-0.256,3.328-0.768,5.056-1.152c6.016,0,12.032,0,18.048,0c3.072,0.576,6.08,1.28,9.216,1.728
		c23.936,3.648,45.568,13.12,64.96,27.136c26.624,19.264,52.608,39.488,78.72,59.456c22.144,16.96,43.2,35.136,59.776,57.856
		c6.016,8.256,12.672,16.128,19.072,24.256c1.408-0.832,2.368-1.344,3.264-1.984c11.712-8.64,22.656-17.6,31.232-29.888
		c19.008-27.2,55.168-23.104,67.84,7.104c14.144,33.6,24.064,68.416,27.584,104.832c0.576,5.76,1.408,11.52,2.112,17.344
		C1024,409.12,1024,418.272,1024,427.488z M524.672,356.704c0.64,0.064,1.344,0.064,2.048,0.128
		c0.384,1.664,0.832,3.328,1.152,5.056c3.712,22.272,7.488,44.544,11.2,66.816c4.16,24.768,8.64,49.472,9.216,74.752
		c0.512,25.28-2.56,49.856-11.84,73.536c-3.52,8.96-9.984,13.44-19.84,13.056c-3.392-0.192-7.104,0.064-10.176,1.408
		c-18.88,8.064-37.696,16.448-56.448,24.896c-16.256,7.36-32.192,15.488-48.704,22.272c-16.064,6.592-32.832,7.808-49.6,1.728
		c-15.36-5.568-27.84-15.424-39.68-26.304c-13.568-12.48-17.856-27.264-10.88-44.672c4.928-12.416,2.944-23.872-4.16-34.752
		c-3.2-4.928-6.464-9.792-9.792-14.592c-7.424-10.816-15.104-21.568-22.336-32.512c-9.984-14.976-11.264-30.528-2.048-46.464
		c1.664-2.88,3.136-5.888,4.672-8.832c13.632-25.216,26.88-50.688,45.12-72.96c11.968-14.528,24.576-28.544,36.736-42.944
		c1.152-1.344,0.896-3.84,1.28-5.76c-1.792-0.32-3.712-1.216-5.376-0.768c-12.032,2.88-23.872,6.208-35.904,9.088
		c-62.848,15.04-112.64,49.024-148.416,102.912c-25.92,39.04-40.512,81.92-39.296,129.152c0.448,17.28,3.008,34.688,6.208,51.712
		c7.616,40.256,23.296,77.44,46.208,111.488c12.096,17.92,17.088,37.44,12.8,58.624c-2.496,12.352-6.592,24.384-10.24,36.48
		c-5.568,18.56-1.536,27.2,17.216,31.616c25.792,6.08,51.904,11.2,77.888,16.512c10.176,2.048,18.816-3.584,21.056-13.632
		c1.152-5.056,1.408-10.304,1.92-15.488c0.704-7.424,1.088-14.912,5.76-21.184c15.488-20.736,21.76-44.352,21.696-69.888
		c0-10.88-0.576-21.824-0.832-32.704c-0.064-1.6,0.256-3.264,0.448-4.864c0.448-0.064,0.896-0.192,1.344-0.256
		c0.576,1.28,1.472,2.496,1.728,3.84c1.216,5.568,2.304,11.136,3.456,16.64c1.28,6.08,4.928,9.856,11.008,10.944
		c2.944,0.512,5.952,0.832,8.96,0.768c26.432-0.192,52.864-0.512,79.296-0.704c12.352-0.128,17.984-4.8,21.12-16.832
		c1.216-4.672,3.328-9.088,5.056-13.632c0.384,0.128,0.768,0.256,1.216,0.384c0,8.192,0,16.448,0,24.64c0,8.128,0,16.32,0,25.408
		c-4.544-4.16-8.576-4.032-12.8-1.344c-11.392,7.168-22.912,14.08-34.24,21.376c-11.392,7.36-13.568,15.104-6.976,27.008
		c6.912,12.416,14.272,24.64,22.08,36.544c5.632,8.576,12.032,16.704,18.624,24.576c6.464,7.744,14.976,12.928,25.344,10.816
		c8.768-1.728,16.704-6.208,22.336-13.504c12.928-16.96,29.056-30.528,46.272-42.688c35.2-24.832,59.584-58.048,76.992-96.96
		c12.416-27.712,20.864-56.64,27.392-86.208c2.368-10.624,0.512-14.016-8.32-20.224c-12.224-8.448-23.936-17.664-35.776-26.688
		c-0.704-0.576-0.96-1.792-1.408-2.624c1.088-0.128,2.432-0.64,3.264-0.192c4.608,2.432,9.024,5.248,13.632,7.744
		c5.568,2.944,11.008,6.528,16.96,8.384c25.024,7.808,45.312,22.592,64.192,40.256c7.424,6.976,16,12.928,24.64,18.368
		c7.168,4.544,15.552,6.208,24.192,5.248c28.608-3.072,48.832-22.464,53.12-51.008c0.512-3.456,0.704-6.976,1.088-11.328
		c-2.112,0.768-3.136,1.024-4.032,1.536c-4.864,2.816-6.784,7.488-8.448,12.672c-6.592,20.8-17.472,28.096-38.976,26.432
		c-3.456-0.256-6.912-0.768-10.368-0.704c-0.96,0-1.856,1.6-2.752,2.432c0.896,0.832,1.664,2.304,2.688,2.432
		c4.224,0.64,8.512,0.896,12.736,1.28c3.776,0.384,7.552,0.832,11.328,1.216c-0.256,1.344-0.704,1.728-1.28,1.984
		c-10.112,4.608-20.16,4.8-30.016-0.768c-9.216-5.184-12.992-13.44-11.776-23.488c1.6-13.952,3.968-27.84,6.208-41.728
		c1.344-8.512,3.008-16.96,4.608-25.984c23.424,12.48,47.68,20.16,72.64,25.408c23.936,4.992,47.808,10.752,72.64,9.216
		c31.104-1.984,58.176-13.184,80.512-34.88c35.456-34.368,46.976-78.72,51.008-125.888c1.536-18.368-1.344-36.608-3.456-54.784
		c-3.392-29.056-9.92-57.344-20.608-84.544c-1.728-4.48-4.352-8.832-7.488-12.544c-5.696-6.72-13.12-7.744-20.288-2.688
		c-4.544,3.264-8.704,7.36-12.224,11.776c-12.672,15.936-27.136,29.12-47.424,34.624c-7.872,2.176-11.776,8.32-11.52,16.576
		c0.192,5.632,1.28,11.264,1.984,16.896c3.648,29.248-1.92,57.344-10.56,84.992c-0.768,2.432-2.048,4.608-3.136,6.976
		c0-10.56,0.768-20.8,1.472-31.04c0.96-13.696,1.92-27.456,2.88-41.152c0.256-3.2-1.088-4.736-4.16-3.52
		c-5.952,2.432-12.224,4.48-17.536,8c-8.256,5.44-11.904,14.528-15.232,23.488c-2.496,6.784-4.864,13.568-7.296,20.288
		c-0.384-0.128-0.768-0.192-1.152-0.32c0.896-9.6,1.536-19.2,2.688-28.736c1.152-9.856,6.08-18.24,11.712-26.432
		c-8.064,0.896-15.68,2.176-21.056,8.512c-6.464,7.616-12.736,15.488-19.52,23.808c3.712-11.968,7.232-23.36,16.384-31.68
		c14.976-13.632,32.576-10.432,50.24-6.272c-1.6-9.024-8.32-15.232-17.152-16.064c-4.544-0.384-9.152,0-13.76-0.192
		c-2.816-0.128-5.568-0.64-8.32-0.96c3.136-1.984,6.144-2.88,9.088-4.032c8.96-3.456,9.472-5.44,3.648-13.248
		c-2.944-3.904-5.568-4.48-9.792-1.792c-2.368,1.472-4.48,3.328-6.72,4.992c-0.064-2.432,0.64-4.416,1.6-6.208
		c2.752-5.056,1.856-6.912-3.904-8.064c-1.984-0.384-3.968-1.024-5.952-1.472c15.552-7.552,31.168-12.992,48.512-13.312
		c-9.408-14.272-16.256-29.952-29.824-39.68c-13.312-9.536-28.352-16.704-42.624-24.832c0.576-0.576,1.6-1.728,3.392-3.648
		c-1.28-0.832-2.432-1.408-3.392-2.176c-20.48-16.704-41.024-33.344-61.504-50.112c-31.872-26.176-68.864-32.192-108.544-27.392
		c-25.6,3.136-50.112,10.368-73.344,21.632c-28.48,13.952-55.104,30.144-73.792,56.704c-0.832,1.216-1.728,2.368-3.264,4.608
		c16.192,0,31.168,0,46.144,0c0.064,0.64,0.128,1.28,0.192,1.92c-10.944,1.92-21.888,4.864-32.96,5.568
		c-36.032,2.24-64.96,17.472-88.128,45.056c-20.48,24.32-41.28,48.448-62.912,71.744c-22.656,24.448-40.192,52.032-53.888,82.176
		c-7.04,15.488-5.248,30.08,5.056,43.712c10.368,13.76,20.48,27.776,30.72,41.664c0.96,1.344,2.112,2.56,3.648,4.416
		c15.68-19.072,30.848-37.568,46.08-56.064c0.384,0.32,0.832,0.64,1.216,0.96c-0.96,1.6-1.856,3.2-2.816,4.736
		c-17.728,28.608-31.808,59.072-45.888,89.536c-3.648,8-3.2,15.872,1.536,23.552C335.104,621.216,373.44,635.68,403.52,620
		c7.552-3.968,14.976-8.256,22.784-11.648c27.2-11.648,54.464-23.04,81.792-34.368c7.552-3.136,13.312-7.936,16.064-15.744
		c6.336-17.856,8.256-36.352,7.36-55.168c-0.64-13.568-2.048-27.136-3.008-40.64c-1.856-24.96-4.032-49.856-5.312-74.752
		C522.688,377.376,524.096,367.008,524.672,356.704z M647.616,666.528c-0.64,1.024-0.96,1.408-1.088,1.792
		c-0.64,1.792-1.28,3.584-1.792,5.376c-10.432,35.52-23.808,69.696-44.928,100.48c-5.824,8.448-12.608,16.256-18.56,24.576
		c-1.344,1.856-1.536,4.928-1.344,7.36c0.064,0.704,3.392,1.6,5.248,1.6c21.056,0.128,42.048,0.128,63.104,0.064
		c15.616-0.064,23.936-8.768,23.552-24.384c-0.064-2.048-0.448-4.096-0.64-6.144c-1.984-17.536-4.16-35.136-6.016-52.672
		c-1.984-18.688-6.208-36.736-14.784-53.632C649.792,669.6,648.832,668.384,647.616,666.528z M119.232,644.384
		c-1.408,1.088-2.496,1.728-3.328,2.624c-9.792,10.112-19.776,20.032-29.312,30.4C75.584,689.44,74.24,699.36,81.6,713.824
		c11.136,21.824,28.16,37.952,50.112,48.704c4.48,2.176,9.472,3.584,14.4,4.416c13.952,2.368,24.32-6.976,23.232-20.992
		c-0.256-3.328-1.536-6.784-3.072-9.856c-14.72-29.184-29.632-58.304-44.544-87.488
		C121.088,647.264,120.192,645.984,119.232,644.384z M119.872,463.072c-2.048,1.088-3.776,1.792-5.312,2.88
		c-6.784,4.864-14.528,5.504-22.592,5.248c-7.04-0.192-11.584-3.84-14.464-9.792c-2.752-5.632-0.64-10.56,2.688-15.424
		c2.432-3.584,4.928-7.552,5.76-11.712c2.88-15.168,5.12-30.528,7.36-45.824c0.256-1.856-0.704-3.904-1.152-5.824
		c-0.64-0.128-1.216-0.256-1.728-0.384c-7.872,8.96-15.808,17.92-23.68,26.944c-8.832,10.112-9.6,22.08-7.552,34.432
		c2.304,13.824,9.984,25.472,16.32,37.632c2.688,5.12,7.808,8.128,13.696,8.064c5.952,0,12.032-0.448,17.792-1.792
		C117.504,485.024,123.008,474.656,119.872,463.072z"/>
	<path class="st0" d="M0,397.088c0.768-2.368,1.408-4.8,2.24-7.104c2.496-6.912,7.104-12.096,13.568-15.68
		C7.872,382.368,4.288,392.8,0,402.784C0,400.864,0,399.008,0,397.088z"/>
	<path class="st0" d="M504.512,133.792c-24.96,12.608-45.312,30.144-59.584,55.744C447.744,165.344,466.624,138.656,504.512,133.792
		z"/>
	<path class="st0" d="M11.136,435.04C8,404.576,20.16,379.232,45.312,365.856c-18.304,20.672-28.096,44.096-33.792,69.376
		C11.392,435.168,11.264,435.104,11.136,435.04z"/>
	<path class="st0" d="M472.448,135.264c-14.144,7.424-24.96,16.768-32.896,29.952C441.152,150.816,453.312,139.552,472.448,135.264z
		"/>
	<path class="st0" d="M704.128,376.608c-5.504-1.728-9.92-4.032-14.464-4.224c-2.816-0.128-6.272,2.432-8.576,4.672
		c-2.752,2.688-4.608,6.336-7.232,10.048c-2.24-3.84-4.224-7.168-6.08-10.56c-1.152-2.176-2.56-2.496-4.608-1.216
		c-3.456,2.112-6.976,4.16-10.88,6.4c19.776-35.072,41.792-50.752,71.296-49.472c-3.264,2.688-5.76,4.8-8.576,7.104
		c1.088,0.832,1.856,1.664,2.752,2.112c7.424,3.52,12.352,9.472,15.232,16.832c1.6,3.968,3.584,5.504,7.68,4.736
		c2.304-0.448,4.672-0.448,7.488,0.064c-23.168,15.296-46.4,30.592-69.568,45.888c-0.32-0.256-0.576-0.576-0.896-0.832
		C686.272,397.984,694.848,387.744,704.128,376.608z"/>
	<path class="st0" d="M451.584,301.344c-21.568,22.208-29.76,51.968-43.968,78.592c0.384-2.176,0.448-4.48,1.216-6.528
		c8.576-22.784,17.152-45.568,25.92-68.288c6.528-16.704,19.136-24.832,36.864-25.856c15.616-0.896,31.232-2.24,46.976-2.944
		c-7.552,3.008-15.104,6.016-22.72,8.96c-14.336,5.504-24.448,15.424-31.232,28.992c-3.968,7.872-7.936,15.744-11.904,23.68
		c-0.448-0.064-0.832-0.128-1.28-0.192c0.64-11.904,1.28-23.872,1.92-35.776C452.8,301.728,452.16,301.536,451.584,301.344z"/>
	<path class="st0" d="M961.6,285.088c-1.472,4.48-2.304,9.216-4.416,13.312c-9.216,17.984-22.784,30.912-42.88,35.968
		c-7.424,1.856-14.4-0.192-21.44-3.328c31.232-3.008,50.752-22.848,67.456-46.848C960.704,284.512,961.152,284.832,961.6,285.088z"
		/>
	<path class="st0" d="M621.952,327.52c-10.496-24.768,11.584-48.32,37.12-51.648C640.704,289.056,626.816,304.48,621.952,327.52z"/>
	<path class="st0" d="M697.6,565.152c-5.056-19.968,8.064-32.384,32.256-30.592C715.584,541.472,703.04,549.088,697.6,565.152z"/>
</g>
</svg>
